<svg id="SvgjsSvg1023" xmlns="http://www.w3.org/2000/svg" version="1.1" xmlns:xlink="http://www.w3.org/1999/xlink" xmlns:svgjs="http://svgjs.com/svgjs" width="10" height="12" viewBox="0 0 10 12"><title>Forma 1 kопировать 34</title><desc>Created with Avocode.</desc><defs id="SvgjsDefs1024"></defs><path id="SvgjsPath1025" d="M732.846 480.138C732.955 480.037 732.996 479.878 732.949 479.733C732.9029999999999 479.589 732.779 479.487 732.635 479.476L729.75 479.249C729.617 479.23900000000003 729.5 479.151 729.447 479.02000000000004L728.301 476.225C728.244 476.086 728.1120000000001 475.995 727.9670000000001 475.997C727.8220000000001 475.998 727.6920000000001 476.09000000000003 727.6370000000001 476.233L726.542 479.05C726.491 479.181 726.375 479.27000000000004 726.2420000000001 479.284L723.3620000000001 479.566C723.2180000000001 479.58 723.095 479.68399999999997 723.0520000000001 479.83C723.0080000000002 479.974 723.0520000000001 480.13399999999996 723.1620000000001 480.233L725.3690000000001 482.201C725.4720000000001 482.29200000000003 725.5170000000002 482.435 725.4880000000002 482.57300000000004L724.8540000000002 485.54300000000006C724.8220000000001 485.69200000000006 724.8780000000002 485.84600000000006 724.9960000000002 485.93500000000006C725.1140000000003 486.0230000000001 725.2710000000002 486.02900000000005 725.3950000000002 485.94900000000007L727.8540000000002 484.3470000000001C727.9680000000002 484.2730000000001 728.1120000000002 484.2710000000001 728.2280000000002 484.3430000000001L730.7150000000001 485.8960000000001C730.8390000000002 485.9750000000001 730.9970000000002 485.96600000000007 731.1130000000002 485.8760000000001C731.2290000000002 485.7850000000001 731.2830000000001 485.6290000000001 731.2480000000002 485.4800000000001L730.5620000000001 482.5230000000001C730.5300000000001 482.3860000000001 730.5730000000001 482.2420000000001 730.6740000000001 482.1480000000001Z " fill="#ffcc33" fill-opacity="1" transform="matrix(1,0,0,1,-723,-475)"></path></svg>