<svg id="SvgjsSvg1026" xmlns="http://www.w3.org/2000/svg" version="1.1" xmlns:xlink="http://www.w3.org/1999/xlink" xmlns:svgjs="http://svgjs.com/svgjs" width="10" height="12" viewBox="0 0 10 12"><title>Forma 1 kопировать 35</title><desc>Created with Avocode.</desc><defs id="SvgjsDefs1027"></defs><path id="SvgjsPath1028" d="M746.862 480.138C746.971 480.037 747.012 479.878 746.966 479.733C746.92 479.589 746.796 479.487 746.651 479.476L743.7669999999999 479.249C743.6329999999999 479.23900000000003 743.516 479.151 743.463 479.02000000000004L742.318 476.225C742.26 476.086 742.129 475.995 741.984 475.997C741.839 475.998 741.7090000000001 476.09000000000003 741.654 476.233L740.558 479.05C740.507 479.181 740.3919999999999 479.27000000000004 740.258 479.284L737.378 479.566C737.234 479.58 737.1120000000001 479.68399999999997 737.0680000000001 479.83C737.0250000000001 479.974 737.0690000000001 480.13399999999996 737.1790000000001 480.233L739.3860000000001 482.201C739.488 482.29200000000003 739.5340000000001 482.435 739.5050000000001 482.57300000000004L738.8700000000001 485.54300000000006C738.8380000000001 485.69200000000006 738.8940000000001 485.84600000000006 739.0120000000002 485.93500000000006C739.1310000000002 486.0230000000001 739.2880000000001 486.02900000000005 739.4110000000002 485.94900000000007L741.8710000000002 484.3470000000001C741.9850000000002 484.2730000000001 742.1280000000002 484.2710000000001 742.2440000000003 484.3430000000001L744.7310000000002 485.8960000000001C744.8560000000002 485.9750000000001 745.0130000000003 485.96600000000007 745.1290000000002 485.8760000000001C745.2460000000002 485.7850000000001 745.2990000000002 485.6290000000001 745.2650000000002 485.4800000000001L744.5790000000002 482.5230000000001C744.5460000000002 482.3860000000001 744.5900000000001 482.2420000000001 744.6900000000002 482.1480000000001Z " fill="#999999" fill-opacity="1" transform="matrix(1,0,0,1,-737,-475)"></path></svg>