<svg id="SvgjsSvg1028" xmlns="http://www.w3.org/2000/svg" version="1.1" xmlns:xlink="http://www.w3.org/1999/xlink" xmlns:svgjs="http://svgjs.com/svgjs" width="31" height="31" viewBox="0 0 31 31"><title>Forma 1</title><desc>Created with Avocode.</desc><defs id="SvgjsDefs1029"></defs><path id="SvgjsPath1030" d="M1708.34 888.981C1707.1 888.981 1705.59 888.667 1703.9399999999998 888.04C1700.32 886.6619999999999 1696.3799999999999 883.9399999999999 1692.85 880.3779999999999C1689.32 876.8149999999999 1686.62 872.842 1685.25 869.1879999999999C1684.01 865.8669999999998 1684.01 863.1419999999998 1685.24 861.8949999999999C1685.42 861.7139999999998 1685.6 861.5219999999998 1685.79 861.3239999999998C1686.92 860.1279999999998 1688.23 858.7679999999998 1689.8899999999999 858.8419999999999C1691.05 858.8909999999998 1692.1799999999998 859.6209999999999 1693.34 861.0709999999999C1696.75 865.3549999999999 1695.2099999999998 866.8809999999999 1693.4299999999998 868.651L1693.12 868.966C1692.83 869.26 1692.27 870.62 1697.3999999999999 875.789C1699.07 877.477 1700.4999999999998 878.712 1701.6399999999999 879.459C1702.36 879.929 1703.6399999999999 880.6389999999999 1704.1699999999998 880.1089999999999L1704.4799999999998 879.7869999999999C1706.2399999999998 877.992 1707.7499999999998 876.4449999999999 1711.9999999999998 879.887C1713.4399999999998 881.053 1714.1599999999999 882.1919999999999 1714.2099999999998 883.3689999999999C1714.2799999999997 885.074 1712.9299999999998 886.3629999999999 1711.7399999999998 887.5009999999999C1711.5499999999997 887.6889999999999 1711.3499999999997 887.8699999999999 1711.1799999999998 888.0479999999999C1710.56 888.6699999999998 1709.58 888.9809999999999 1708.34 888.9809999999999ZM1689.77 859.852C1688.57 859.852 1687.48 861.004 1686.52 862.0219999999999C1686.33 862.227 1686.1399999999999 862.4269999999999 1685.95 862.612C1685.03 863.54 1685.13 865.981 1686.19 868.831C1687.51 872.352 1690.13 876.1990000000001 1693.56 879.662C1697 883.1260000000001 1700.81 885.763 1704.3 887.092C1707.12 888.167 1709.55 888.26 1710.47 887.331C1710.65 887.1460000000001 1710.8500000000001 886.958 1711.05 886.765C1712.08 885.774 1713.25 884.653 1713.2 883.408C1713.17 882.554 1712.55 881.634 1711.3700000000001 880.676C1707.8300000000002 877.808 1706.8400000000001 878.822 1705.2 880.4970000000001L1704.88 880.825C1704.1000000000001 881.6170000000001 1702.8200000000002 881.4430000000001 1701.0900000000001 880.308C1699.89 879.523 1698.41 878.2429999999999 1696.69 876.505C1692.43 872.215 1691.0700000000002 869.591 1692.41 868.247L1692.73 867.9269999999999C1694.39 866.2719999999999 1695.4 865.2729999999999 1692.55 861.7049999999999C1691.6 860.5129999999999 1690.69 859.891 1689.84 859.8539999999999C1689.82 859.853 1689.79 859.852 1689.77 859.852Z " fill="#000000" fill-opacity="1" transform="matrix(1,0,0,1,-1684,-858)"></path></svg>