<svg id="SvgjsSvg1015" xmlns="http://www.w3.org/2000/svg" version="1.1" xmlns:xlink="http://www.w3.org/1999/xlink" xmlns:svgjs="http://svgjs.com/svgjs" width="19" height="21" viewBox="0 0 19 21"><title>Shape 1</title><desc>Created with Avocode.</desc><defs id="SvgjsDefs1016"></defs><path id="SvgjsPath1017" d="M1289.13 195.167L1299.8000000000002 195.167C1301.0100000000002 195.167 1302.0000000000002 194.147 1302.0000000000002 192.898L1302.0000000000002 188.262C1302.0000000000002 188.257 1302.0000000000002 188.249 1302.0000000000002 188.245C1302.0000000000002 188.233 1302.0000000000002 188.225 1302.0000000000002 188.21200000000002C1302.0000000000002 188.204 1302.0000000000002 188.19600000000003 1302.0000000000002 188.18800000000002C1302.0000000000002 188.17900000000003 1301.9900000000002 188.16700000000003 1301.9900000000002 188.15900000000002C1301.9900000000002 188.15000000000003 1301.9900000000002 188.14200000000002 1301.9900000000002 188.13400000000001C1301.9800000000002 188.126 1301.9800000000002 188.11800000000002 1301.9800000000002 188.10600000000002C1301.9800000000002 188.09700000000004 1301.9800000000002 188.08900000000003 1301.9700000000003 188.08100000000002C1301.9700000000003 188.07200000000003 1301.9700000000003 188.06400000000002 1301.9600000000003 188.056C1301.9600000000003 188.048 1301.9600000000003 188.04000000000002 1301.9500000000003 188.02700000000002C1301.9500000000003 188.019 1301.9400000000003 188.01100000000002 1301.9400000000003 188.007C1301.9400000000003 187.99800000000002 1301.9300000000003 187.99 1301.9300000000003 187.982C1301.9200000000003 187.974 1301.9200000000003 187.97 1301.9200000000003 187.962C1301.9100000000003 187.953 1301.9000000000003 187.945 1301.9000000000003 187.93699999999998C1301.9000000000003 187.92899999999997 1301.8900000000003 187.92399999999998 1301.8800000000003 187.916C1301.8800000000003 187.908 1301.8700000000003 187.904 1301.8700000000003 187.896C1301.8600000000004 187.887 1301.8600000000004 187.884 1301.8500000000004 187.875C1301.8500000000004 187.867 1301.8400000000004 187.863 1301.8400000000004 187.859C1301.8300000000004 187.85000000000002 1301.8200000000004 187.846 1301.8200000000004 187.83800000000002C1301.8100000000004 187.83400000000003 1301.8000000000004 187.82600000000002 1301.8000000000004 187.82200000000003C1301.7900000000004 187.81800000000004 1301.7800000000004 187.80900000000003 1301.7700000000004 187.80500000000004C1301.7600000000004 187.80100000000004 1301.7600000000004 187.79700000000003 1301.7500000000005 187.79300000000003C1301.7500000000005 187.78900000000004 1301.7400000000005 187.78500000000003 1301.7300000000005 187.77600000000004C1301.7200000000005 187.77300000000005 1301.7100000000005 187.76800000000003 1301.7100000000005 187.76400000000004C1301.7000000000005 187.76000000000005 1301.6900000000005 187.75600000000003 1301.6800000000005 187.75200000000004C1301.6700000000005 187.74800000000005 1301.6700000000005 187.74400000000003 1301.6600000000005 187.74000000000004C1301.6500000000005 187.73500000000004 1301.6400000000006 187.73500000000004 1301.6300000000006 187.73100000000005C1301.6300000000006 187.72700000000006 1301.6100000000006 187.72400000000005 1301.6100000000006 187.72400000000005C1301.6000000000006 187.72400000000005 1301.5900000000006 187.71900000000005 1301.5900000000006 187.71900000000005C1301.5700000000006 187.71500000000006 1301.5700000000006 187.71500000000006 1301.5500000000006 187.71500000000006C1301.5500000000006 187.71500000000006 1301.5500000000006 187.71100000000007 1301.5400000000006 187.71100000000007L1288.0100000000007 185.78300000000007L1288.0100000000007 183.83500000000006C1288.0100000000007 183.81400000000008 1288.0100000000007 183.79300000000006 1288.0100000000007 183.77700000000007C1288.0100000000007 183.77300000000008 1288.0100000000007 183.76900000000006 1288.0000000000007 183.76100000000008C1288.0000000000007 183.74800000000008 1288.0000000000007 183.73600000000008 1288.0000000000007 183.72400000000007C1288.0000000000007 183.71100000000007 1288.0000000000007 183.7030000000001 1287.9900000000007 183.6910000000001C1287.9900000000007 183.6820000000001 1287.9900000000007 183.67800000000008 1287.9900000000007 183.6700000000001C1287.9800000000007 183.6580000000001 1287.9800000000007 183.6450000000001 1287.9800000000007 183.6330000000001C1287.9800000000007 183.6290000000001 1287.9700000000007 183.6210000000001 1287.9700000000007 183.6170000000001C1287.9700000000007 183.6050000000001 1287.9600000000007 183.59600000000012 1287.9600000000007 183.58400000000012C1287.9500000000007 183.58000000000013 1287.9500000000007 183.57200000000012 1287.9500000000007 183.56700000000012C1287.9400000000007 183.5590000000001 1287.9400000000007 183.55100000000013 1287.9300000000007 183.54300000000012C1287.9300000000007 183.5350000000001 1287.9200000000008 183.53100000000012 1287.9200000000008 183.52200000000013C1287.9200000000008 183.51400000000012 1287.9100000000008 183.51000000000013 1287.9100000000008 183.50200000000012C1287.9000000000008 183.4940000000001 1287.9000000000008 183.48500000000013 1287.8900000000008 183.47700000000012C1287.8900000000008 183.47300000000013 1287.8800000000008 183.46800000000013 1287.8800000000008 183.46500000000012C1287.8700000000008 183.4570000000001 1287.8600000000008 183.44800000000012 1287.8600000000008 183.4400000000001C1287.8500000000008 183.43600000000012 1287.8500000000008 183.4320000000001 1287.8400000000008 183.4270000000001C1287.8400000000008 183.4200000000001 1287.8300000000008 183.41100000000012 1287.8200000000008 183.4030000000001C1287.8100000000009 183.39900000000011 1287.8000000000009 183.3950000000001 1287.8000000000009 183.3910000000001C1287.7900000000009 183.38200000000012 1287.7800000000009 183.3780000000001 1287.7800000000009 183.37000000000012C1287.760000000001 183.3620000000001 1287.750000000001 183.35400000000013 1287.740000000001 183.34900000000013C1287.740000000001 183.34600000000015 1287.740000000001 183.34600000000015 1287.730000000001 183.34100000000012C1287.720000000001 183.3330000000001 1287.700000000001 183.32500000000013 1287.680000000001 183.31700000000012L1284.750000000001 182.04200000000012C1284.470000000001 181.92300000000012 1284.160000000001 182.05500000000012 1284.0400000000009 182.3390000000001C1283.930000000001 182.6220000000001 1284.0500000000009 182.94700000000012 1284.3300000000008 183.06600000000012L1286.9300000000007 184.2000000000001L1286.9300000000007 196.3590000000001C1286.9300000000007 197.5100000000001 1287.7700000000007 198.46400000000008 1288.8500000000008 198.6080000000001C1288.6500000000008 198.94500000000008 1288.5400000000009 199.3400000000001 1288.5400000000009 199.7590000000001C1288.5400000000009 200.9960000000001 1289.510000000001 201.9990000000001 1290.710000000001 201.9990000000001C1291.900000000001 201.9990000000001 1292.880000000001 200.9920000000001 1292.880000000001 199.7590000000001C1292.880000000001 199.3480000000001 1292.7700000000011 198.9580000000001 1292.580000000001 198.6280000000001L1297.410000000001 198.6280000000001C1297.220000000001 198.9610000000001 1297.110000000001 199.3480000000001 1297.110000000001 199.7590000000001C1297.110000000001 200.9960000000001 1298.090000000001 201.9990000000001 1299.280000000001 201.9990000000001C1300.4800000000012 201.9990000000001 1301.4500000000012 200.9920000000001 1301.4500000000012 199.7590000000001C1301.4500000000012 198.5260000000001 1300.4800000000012 197.5180000000001 1299.280000000001 197.5180000000001L1289.130000000001 197.5180000000001C1288.5100000000011 197.5180000000001 1288.0100000000011 196.9960000000001 1288.0100000000011 196.3590000000001L1288.0100000000011 194.8550000000001C1288.330000000001 195.0520000000001 1288.7200000000012 195.16700000000012 1289.130000000001 195.16700000000012ZM1291.81 199.755C1291.81 200.38 1291.31 200.885 1290.71 200.885C1290.1100000000001 200.885 1289.6200000000001 200.375 1289.6200000000001 199.755C1289.6200000000001 199.134 1290.1100000000001 198.624 1290.71 198.624C1291.31 198.624 1291.81 199.13 1291.81 199.755ZM1300.38 199.755C1300.38 200.38 1299.89 200.885 1299.2800000000002 200.885C1298.6800000000003 200.885 1298.1900000000003 200.375 1298.1900000000003 199.755C1298.1900000000003 199.134 1298.6800000000003 198.624 1299.2800000000002 198.624C1299.89 198.624 1300.38 199.13 1300.38 199.755ZM1299.8 194.057L1289.1299999999999 194.057C1288.51 194.057 1288.01 193.535 1288.01 192.898L1288.01 186.901L1300.92 188.738L1300.92 192.894C1300.92 193.53900000000002 1300.42 194.05700000000002 1299.8000000000002 194.05700000000002Z " fill="#000000" fill-opacity="1" transform="matrix(1,0,0,1,-1283,-181)"></path></svg>