<svg id="SvgjsSvg1018" xmlns="http://www.w3.org/2000/svg" version="1.1" xmlns:xlink="http://www.w3.org/1999/xlink" xmlns:svgjs="http://svgjs.com/svgjs" width="43" height="44" viewBox="0 0 43 44"><title>Группа 31</title><desc>Created with Avocode.</desc><defs id="SvgjsDefs1019"><clipPath id="SvgjsClipPath1027"><path id="SvgjsPath1026" d="M408 2645L408 2636L415 2636L415 2645Z " fill="#ffffff"></path></clipPath></defs><path id="SvgjsPath1020" d="M411.5 2680C411.308 2680 411.125 2679.92 411.002 2679.77L390.16200000000003 2655.35C389.966 2655.12 389.956 2654.79 390.13800000000003 2654.5499999999997L397.95300000000003 2644.2599999999998C398.076 2644.1 398.27000000000004 2644.0099999999998 398.47400000000005 2644.0099999999998L424.52500000000003 2644.0099999999998C424.72900000000004 2644.0099999999998 424.92400000000004 2644.1 425.04600000000005 2644.2599999999998L432.86100000000005 2654.5499999999997C433.04400000000004 2654.7899999999995 433.0330000000001 2655.12 432.838 2655.35L411.997 2679.77C411.875 2679.92 411.69100000000003 2680 411.5 2680Z " fill="#000000" fill-opacity="1" transform="matrix(1,0,0,1,-390,-2636)"></path><path id="SvgjsPath1021" d="M411.49 2671C411.37 2671 411.254 2670.95 411.177 2670.86L398.082 2655.9300000000003C397.959 2655.7900000000004 397.953 2655.59 398.067 2655.4500000000003L402.978 2649.1600000000003C403.055 2649.0600000000004 403.177 2649.0000000000005 403.305 2649.0000000000005L419.675 2649.0000000000005C419.803 2649.0000000000005 419.925 2649.0600000000004 420.002 2649.1600000000003L424.913 2655.4500000000003C425.027 2655.59 425.021 2655.7900000000004 424.898 2655.9300000000003L411.803 2670.86C411.726 2670.9500000000003 411.61 2671 411.49 2671Z " fill="#f1dba0" fill-opacity="1" transform="matrix(1,0,0,1,-390,-2636)"></path><path id="SvgjsPath1022" d="M416.49 2677C416.37 2677 416.254 2676.95 416.177 2676.86L403.082 2661.9300000000003C402.959 2661.7900000000004 402.953 2661.59 403.067 2661.4500000000003L407.978 2655.1600000000003C408.055 2655.0600000000004 408.177 2655.0000000000005 408.305 2655.0000000000005L424.675 2655.0000000000005C424.803 2655.0000000000005 424.925 2655.0600000000004 425.002 2655.1600000000003L429.913 2661.4500000000003C430.027 2661.59 430.021 2661.7900000000004 429.898 2661.9300000000003L416.803 2676.86C416.726 2676.9500000000003 416.61 2677 416.49 2677Z " fill="#f1dba0" fill-opacity="1" transform="matrix(1,0,0,1,-390,-2636)"></path><path id="SvgjsPath1023" d="M405.614 2645.36L424.239 2665.44L419.38599999999997 2669.64L400.76 2649.5499999999997Z " fill="#000000" fill-opacity="1" transform="matrix(1,0,0,1,-390,-2636)"></path><path id="SvgjsPath1024" d="M408 2645L408 2636L415 2636L415 2645Z " fill="#000000" fill-opacity="1" transform="matrix(1,0,0,1,-390,-2636)"></path><path id="SvgjsPath1025" d="M408 2645L408 2636L415 2636L415 2645Z " fill-opacity="0" fill="#ffffff" stroke-dasharray="0" stroke-linejoin="round" stroke-linecap="round" stroke-opacity="1" stroke="#000000" stroke-miterlimit="50" stroke-width="2" clip-path="url(&quot;#SvgjsClipPath1027&quot;)" transform="matrix(1,0,0,1,-390,-2636)"></path></svg>