<svg id="SvgjsSvg1000" xmlns="http://www.w3.org/2000/svg" version="1.1" xmlns:xlink="http://www.w3.org/1999/xlink" xmlns:svgjs="http://svgjs.com/svgjs" width="43" height="47" viewBox="0 0 43 47"><title>Группа 31 kопировать</title><desc>Created with Avocode.</desc><defs id="SvgjsDefs1001"><clipPath id="SvgjsClipPath1014"><path id="SvgjsPath1013" d="M408 52L408 45L415 45L415 52Z " fill="#ffffff"></path></clipPath></defs><path id="SvgjsPath1007" d="M411.5 91.002C411.308 91.002 411.124 90.9183 411.002 90.773L390.16200000000003 66.3479C389.966 66.1188 389.956 65.7873 390.13800000000003 65.5478L397.95300000000003 55.2636C398.076 55.101499999999994 398.27000000000004 55.006499999999996 398.47400000000005 55.006499999999996L424.52500000000003 55.006499999999996C424.72900000000004 55.006499999999996 424.92300000000006 55.101499999999994 425.04600000000005 55.2636L432.86100000000005 65.5478C433.04400000000004 65.7873 433.0330000000001 66.1188 432.838 66.3479L411.997 90.773C411.875 90.9183 411.69100000000003 91.002 411.5 91.002Z " fill="#000000" fill-opacity="1" transform="matrix(1,0,0,1,-390,-45)"></path><path id="SvgjsPath1008" d="M411.49 82.0012C411.37 82.0012 411.254 81.9502 411.177 81.8611L398.082 66.93469999999999C397.959 66.79469999999999 397.953 66.5919 398.067 66.44579999999999L402.978 60.160799999999995C403.055 60.061899999999994 403.177 60.004 403.305 60.004L419.675 60.004C419.803 60.004 419.925 60.061899999999994 420.002 60.160799999999995L424.913 66.44579999999999C425.027 66.5919 425.021 66.79469999999999 424.898 66.93469999999999L411.802 81.8611C411.726 81.9502 411.61 82.0012 411.49 82.0012Z " fill="#f2bbf2" fill-opacity="1" transform="matrix(1,0,0,1,-390,-45)"></path><path id="SvgjsPath1009" d="M416.49 88.0011C416.37 88.0011 416.254 87.9499 416.177 87.8612L403.082 72.93459999999999C402.959 72.79469999999999 402.953 72.59209999999999 403.067 72.44559999999998L407.978 66.16079999999998C408.055 66.06199999999998 408.177 66.00379999999998 408.305 66.00379999999998L424.675 66.00379999999998C424.803 66.00379999999998 424.925 66.06199999999998 425.002 66.16079999999998L429.913 72.44559999999998C430.027 72.59209999999999 430.021 72.79469999999999 429.898 72.93459999999999L416.803 87.8612C416.726 87.9499 416.61 88.0011 416.49 88.0011Z " fill="#f2bbf1" fill-opacity="1" transform="matrix(1,0,0,1,-390,-45)"></path><path id="SvgjsPath1010" d="M405.614 56.3609L424.239 76.4447L419.38599999999997 80.6386L400.76 60.5544Z " fill="#000000" fill-opacity="1" transform="matrix(1,0,0,1,-390,-45)"></path><path id="SvgjsPath1011" d="M408 52L408 45L415 45L415 52Z " fill="#000000" fill-opacity="1" transform="matrix(1,0,0,1,-390,-45)"></path><path id="SvgjsPath1012" d="M408 52L408 45L415 45L415 52Z " fill-opacity="0" fill="#ffffff" stroke-dasharray="0" stroke-linejoin="round" stroke-linecap="round" stroke-opacity="1" stroke="#000000" stroke-miterlimit="50" stroke-width="2" clip-path="url(&quot;#SvgjsClipPath1014&quot;)" transform="matrix(1,0,0,1,-390,-45)"></path></svg>