<svg xmlns="http://www.w3.org/2000/svg" width="16" height="16" viewBox="0 0 16 16"><title>Forma 1</title><path d="M15.611 1.169a1.116 1.116 0 0 0-.879-.178L5.945 2.87c-.468.1-.784.479-.784.915v6.741a3.633 3.633 0 0 0-1.049-.164c-1.715 0-3.113 1.262-3.113 2.819S2.384 16 4.099 16c1.716 0 3.1-1.262 3.1-2.819V7.818l6.73-1.437v3.205a3.354 3.354 0 0 0-1.032-.164c-1.716 0-3.105 1.263-3.105 2.819 0 1.557 1.389 2.819 3.104 2.819 1.716 0 3.104-1.262 3.104-2.819V1.906a.909.909 0 0 0-.389-.737zM7.199 5.887V4.529l6.73-1.437V4.45z"/></svg>