<svg xmlns="http://www.w3.org/2000/svg" width="16" height="16" viewBox="0 0 16 16"><title>Forma 1</title><path d="M2.64 0l.72 1.6H15.2c.48 0 .8.32.8.8 0 .16 0 .24-.16.4L12.96 8c-.24.48-.72.8-1.36.8H5.68l-.72 1.36v.08c0 .08.08.16.16.16h9.28V12H4.8c-.88 0-1.6-.72-1.6-1.6 0-.24.08-.56.16-.8l1.12-1.92L1.6 1.6H0V0zM6.4 14.4c0 .88-.72 1.6-1.6 1.6-.88 0-1.6-.72-1.6-1.6 0-.88.72-1.6 1.6-1.6.88 0 1.6.72 1.6 1.6zm6.4-1.6c-.88 0-1.6.72-1.6 1.6 0 .88.72 1.6 1.6 1.6.88 0 1.6-.72 1.6-1.6 0-.88-.72-1.6-1.6-1.6z"/></svg>