<svg xmlns="http://www.w3.org/2000/svg" width="12" height="12" viewBox="0 0 12 12"><title>Forma 1</title><path d="M6 0C2.69 0 0 2.692 0 6s2.69 6 6 6 6-2.692 6-6-2.69-6-6-6zm0 11.414A5.414 5.414 0 0 1 .59 6 5.414 5.414 0 0 1 6 .585c2.99 0 5.41 2.429 5.41 5.415A5.414 5.414 0 0 1 6 11.414zm.33-2.457h-.78c-.12 0-.21.098-.21.219v.901c0 .121.09.219.21.219h.78a.22.22 0 0 0 .22-.219v-.901a.22.22 0 0 0-.22-.219zM7.5 2.071c.15.149.22.339.22.566v1.801c0 .248-.06.473-.19.668L6.52 6.642v1.633c0 .122-.1.22-.22.22h-.71a.214.214 0 0 1-.22-.22V6.746c0-.269.06-.497.18-.68L6.57 4.54V2.918H5.38V4.5a.22.22 0 0 1-.22.219h-.72a.212.212 0 0 1-.21-.219V2.637c0-.228.07-.419.23-.567.15-.146.34-.22.56-.22h1.91c.23 0 .42.074.57.221z"/></svg>