<svg xmlns="http://www.w3.org/2000/svg" width="19" height="21" viewBox="0 0 19 21"><title>Shape 1</title><path d="M6.13 14.167H16.8c1.21 0 2.2-1.02 2.2-2.269v-4.71c0-.009-.01-.021-.01-.029v-.025c-.01-.008-.01-.016-.01-.028 0-.009 0-.017-.01-.025 0-.009 0-.017-.01-.025 0-.008 0-.016-.01-.029 0-.008-.01-.016-.01-.02 0-.009-.01-.017-.01-.025-.01-.008-.01-.012-.01-.02-.01-.009-.02-.017-.02-.025s-.01-.013-.02-.021c0-.008-.01-.012-.01-.02-.01-.009-.01-.012-.02-.021 0-.008-.01-.012-.01-.016-.01-.009-.02-.013-.02-.021-.01-.004-.02-.012-.02-.016-.01-.004-.02-.013-.03-.017-.01-.004-.01-.008-.02-.012 0-.004-.01-.008-.02-.017-.01-.003-.02-.008-.02-.012l-.03-.012c-.01-.004-.01-.008-.02-.012-.01-.005-.02-.005-.03-.009 0-.004-.02-.007-.02-.007-.01 0-.02-.005-.02-.005-.02-.004-.02-.004-.04-.004 0 0 0-.004-.01-.004L5.01 4.783V2.777c0-.004 0-.008-.01-.016v-.037c0-.013 0-.021-.01-.033V2.67c-.01-.012-.01-.025-.01-.037 0-.004-.01-.012-.01-.016 0-.012-.01-.021-.01-.033-.01-.004-.01-.012-.01-.017-.01-.008-.01-.016-.02-.024 0-.008-.01-.012-.01-.021 0-.008-.01-.012-.01-.02-.01-.008-.01-.017-.02-.025 0-.004-.01-.009-.01-.012-.01-.008-.02-.017-.02-.025-.01-.004-.01-.008-.02-.013 0-.007-.01-.016-.02-.024-.01-.004-.02-.008-.02-.012-.01-.009-.02-.013-.02-.021-.02-.008-.03-.016-.04-.021 0-.003 0-.003-.01-.008a.234.234 0 0 0-.05-.024L1.75 1.042a.537.537 0 0 0-.71.297c-.11.283.01.608.29.727L3.93 3.2v12.159c0 1.151.84 2.105 1.92 2.249-.2.337-.31.732-.31 1.151 0 1.237.97 2.24 2.17 2.24 1.19 0 2.17-1.007 2.17-2.24 0-.411-.11-.801-.3-1.131h4.83c-.19.333-.3.72-.3 1.131 0 1.237.98 2.24 2.17 2.24 1.2 0 2.17-1.007 2.17-2.24 0-1.233-.97-2.241-2.17-2.241H6.13c-.62 0-1.12-.522-1.12-1.159v-1.504c.32.197.71.312 1.12.312zm2.68 4.588c0 .625-.5 1.13-1.1 1.13-.6 0-1.09-.51-1.09-1.13 0-.621.49-1.131 1.09-1.131.6 0 1.1.506 1.1 1.131zm8.57 0c0 .625-.49 1.13-1.1 1.13-.6 0-1.09-.51-1.09-1.13 0-.621.49-1.131 1.09-1.131.61 0 1.1.506 1.1 1.131zm-.58-5.698H6.13c-.62 0-1.12-.522-1.12-1.159V5.901l12.91 1.837v4.156c0 .645-.5 1.163-1.12 1.163z"/></svg>