<svg xmlns="http://www.w3.org/2000/svg" width="31" height="31" viewBox="0 0 31 31"><title>Forma 1</title><path d="M24.34 30.981c-1.24 0-2.75-.314-4.4-.941-3.62-1.378-7.56-4.1-11.09-7.662-3.53-3.563-6.23-7.536-7.6-11.19C.01 7.867.01 5.142 1.24 3.895c.18-.181.36-.373.55-.571C2.92 2.128 4.23.768 5.89.842c1.16.049 2.29.779 3.45 2.229 3.41 4.284 1.87 5.81.09 7.58l-.31.315c-.29.294-.85 1.654 4.28 6.823 1.67 1.688 3.1 2.923 4.24 3.67.72.47 2 1.18 2.53.65l.31-.322c1.76-1.795 3.27-3.342 7.52.1 1.44 1.166 2.16 2.305 2.21 3.482.07 1.705-1.28 2.994-2.47 4.132-.19.188-.39.369-.56.547-.62.622-1.6.933-2.84.933zM5.77 1.852c-1.2 0-2.29 1.152-3.25 2.17-.19.205-.38.405-.57.59-.92.928-.82 3.369.24 6.219 1.32 3.521 3.94 7.368 7.37 10.831 3.44 3.464 7.25 6.101 10.74 7.43 2.82 1.075 5.25 1.168 6.17.239.18-.185.38-.373.58-.566 1.03-.991 2.2-2.112 2.15-3.357-.03-.854-.65-1.774-1.83-2.732-3.54-2.868-4.53-1.854-6.17-.179l-.32.328c-.78.792-2.06.618-3.79-.517-1.2-.785-2.68-2.065-4.4-3.803-4.26-4.29-5.62-6.914-4.28-8.258l.32-.32c1.66-1.655 2.67-2.654-.18-6.222-.95-1.192-1.86-1.814-2.71-1.851a1.636 1.636 0 0 0-.07-.002z"/></svg>