<svg xmlns="http://www.w3.org/2000/svg" width="43" height="44" viewBox="0 0 43 44"><title>Группа 31</title><defs><clipPath id="a"><path d="M408 2645v-9h7v9z" fill="#fff"/></clipPath></defs><path d="M21.5 44a.638.638 0 0 1-.498-.23L.162 19.35a.636.636 0 0 1-.024-.8L7.953 8.26a.654.654 0 0 1 .521-.25h26.051c.204 0 .399.09.521.25l7.815 10.29c.183.24.172.57-.023.8L21.997 43.77a.636.636 0 0 1-.497.23z"/><path d="M21.49 35a.412.412 0 0 1-.313-.14L8.082 19.93a.369.369 0 0 1-.015-.48l4.911-6.29c.077-.1.199-.16.327-.16h16.37c.128 0 .25.06.327.16l4.911 6.29c.114.14.108.34-.015.48L21.803 34.86a.412.412 0 0 1-.313.14z" fill="#f1dba0"/><path d="M26.49 41a.412.412 0 0 1-.313-.14L13.082 25.93a.369.369 0 0 1-.015-.48l4.911-6.29c.077-.1.199-.16.327-.16h16.37c.128 0 .25.06.327.16l4.911 6.29c.114.14.108.34-.015.48L26.803 40.86a.412.412 0 0 1-.313.14z" fill="#f1dba0"/><path d="M15.614 9.36l18.625 20.08-4.853 4.2L10.76 13.55zM18 9V0h7v9z"/><path d="M408 2645v-9h7v9z" fill="none" stroke-dasharray="0" stroke-linejoin="round" stroke-linecap="round" stroke="#000" stroke-miterlimit="50" stroke-width="2" clip-path="url(&amp;quot;#a&amp;quot;)" transform="translate(-390 -2636)"/></svg>