<svg xmlns="http://www.w3.org/2000/svg" width="43" height="47" viewBox="0 0 43 47"><title>Группа 31 kопировать</title><defs><clipPath id="a"><path d="M408 52v-7h7v7z" fill="#fff"/></clipPath></defs><path d="M21.5 46.002a.651.651 0 0 1-.498-.229L.162 21.348a.636.636 0 0 1-.024-.8l7.815-10.284a.655.655 0 0 1 .521-.258h26.051c.204 0 .398.095.521.258l7.815 10.284a.636.636 0 0 1-.023.8L21.997 45.773a.65.65 0 0 1-.497.229z"/><path d="M21.49 37.001a.415.415 0 0 1-.313-.14L8.082 21.935a.38.38 0 0 1-.015-.49l4.911-6.284a.415.415 0 0 1 .327-.157h16.37c.128 0 .25.058.327.157l4.911 6.285a.38.38 0 0 1-.015.489L21.802 36.86a.411.411 0 0 1-.312.14z" fill="#f2bbf2"/><path d="M26.49 43.001a.416.416 0 0 1-.313-.14L13.082 27.935a.381.381 0 0 1-.015-.49l4.911-6.284a.415.415 0 0 1 .327-.157h16.37c.128 0 .25.058.327.157l4.911 6.285a.381.381 0 0 1-.015.489L26.803 42.86a.416.416 0 0 1-.313.14z" fill="#f2bbf1"/><path d="M15.614 11.36l18.625 20.085-4.853 4.194L10.76 15.554zM18 7V0h7v7z"/><path d="M408 52v-7h7v7z" fill="none" stroke-dasharray="0" stroke-linejoin="round" stroke-linecap="round" stroke="#000" stroke-miterlimit="50" stroke-width="2" clip-path="url(&amp;quot;#a&amp;quot;)" transform="translate(-390 -45)"/></svg>