<svg xmlns="http://www.w3.org/2000/svg" width="10" height="12" viewBox="0 0 10 12"><title>Forma 1 kопировать 34</title><path d="M9.846 5.138a.39.39 0 0 0 .103-.405.364.364 0 0 0-.314-.257L6.75 4.249a.36.36 0 0 1-.303-.229L5.301 1.225a.36.36 0 0 0-.334-.228.358.358 0 0 0-.33.236L3.542 4.05a.365.365 0 0 1-.3.234l-2.88.282a.364.364 0 0 0-.31.264.393.393 0 0 0 .11.403l2.207 1.968a.39.39 0 0 1 .119.372l-.634 2.97a.39.39 0 0 0 .142.392.348.348 0 0 0 .399.014l2.459-1.602a.347.347 0 0 1 .374-.004l2.487 1.553c.124.079.282.07.398-.02a.391.391 0 0 0 .135-.396l-.686-2.957a.392.392 0 0 1 .112-.375z" fill="#fc3"/></svg>