<svg xmlns="http://www.w3.org/2000/svg" width="10" height="12" viewBox="0 0 10 12"><title>Forma 1 kопировать 35</title><path d="M9.862 5.138a.392.392 0 0 0 .104-.405.364.364 0 0 0-.315-.257l-2.884-.227a.36.36 0 0 1-.304-.229L5.318 1.225a.36.36 0 0 0-.334-.228.358.358 0 0 0-.33.236L3.558 4.05a.364.364 0 0 1-.3.234l-2.88.282a.365.365 0 0 0-.31.264.395.395 0 0 0 .111.403l2.207 1.968a.392.392 0 0 1 .119.372l-.635 2.97a.39.39 0 0 0 .142.392.348.348 0 0 0 .399.014l2.46-1.602a.345.345 0 0 1 .373-.004l2.487 1.553c.125.079.282.07.398-.02a.392.392 0 0 0 .136-.396l-.686-2.957a.391.391 0 0 1 .111-.375z" fill="#999"/></svg>