<svg id="SvgjsSvg1029" xmlns="http://www.w3.org/2000/svg" version="1.1" xmlns:xlink="http://www.w3.org/1999/xlink" xmlns:svgjs="http://svgjs.com/svgjs" width="14" height="14" viewBox="0 0 14 14"><title>Shape 1</title><desc>Created with Avocode.</desc><defs id="SvgjsDefs1030"></defs><path id="SvgjsPath1031" d="M649 827C645.14 827 642 830.14 642 834C642 837.86 645.14 841 649 841C652.86 841 656 837.86 656 834C656 830.14 652.86 827 649 827ZM649 839.727C645.842 839.727 643.273 837.158 643.273 834C643.273 830.842 645.842 828.273 649 828.273C652.158 828.273 654.727 830.842 654.727 834C654.727 837.158 652.158 839.727 649 839.727ZM649 829.97C648.532 829.97 648.151 830.35 648.151 830.818C648.151 831.286 648.5319999999999 831.6659999999999 649 831.6659999999999C649.468 831.6659999999999 649.848 831.286 649.848 830.818C649.848 830.35 649.468 829.97 649 829.97ZM649 832.939C648.648 832.939 648.364 833.2239999999999 648.364 833.5749999999999L648.364 837.3939999999999C648.364 837.7449999999999 648.648 838.0299999999999 649 838.0299999999999C649.351 838.0299999999999 649.636 837.7449999999999 649.636 837.3939999999999L649.636 833.5749999999999C649.636 833.2239999999999 649.351 832.939 649 832.939Z " fill="#000000" fill-opacity="1" transform="matrix(1,0,0,1,-642,-827)"></path></svg>