<svg id="SvgjsSvg1008" xmlns="http://www.w3.org/2000/svg" version="1.1" xmlns:xlink="http://www.w3.org/1999/xlink" xmlns:svgjs="http://svgjs.com/svgjs" width="15" height="14" viewBox="0 0 15 14"><title>Forma 1</title><desc>Created with Avocode.</desc><defs id="SvgjsDefs1009"></defs><path id="SvgjsPath1010" d="M706.98 981.577C706.79 979.503 705.312 977.998 703.461 977.998C702.2280000000001 977.998 701.099 978.657 700.464 979.7130000000001C699.8340000000001 978.643 698.7510000000001 977.998 697.538 977.998C695.687 977.998 694.208 979.503 694.019 981.577C694.004 981.669 693.942 982.151 694.129 982.937C694.399 984.071 695.022 985.1030000000001 695.9300000000001 985.92L700.461 990.001L705.069 985.92C705.977 985.103 706.5999999999999 984.0709999999999 706.87 982.937C707.057 982.1510000000001 706.995 981.669 706.98 981.577Z " fill="#000000" fill-opacity="1" transform="matrix(1,0,0,1,-693,-977)"></path></svg>