<svg id="SvgjsSvg1000" xmlns="http://www.w3.org/2000/svg" version="1.1" xmlns:xlink="http://www.w3.org/1999/xlink" xmlns:svgjs="http://svgjs.com/svgjs" width="16" height="16" viewBox="0 0 16 16"><title>Forma 1</title><desc>Created with Avocode.</desc><defs id="SvgjsDefs1001"></defs><path id="SvgjsPath1007" d="M709.611 854.169C709.362 853.991 709.04 853.925 708.732 853.991L699.9449999999999 855.87C699.477 855.97 699.161 856.349 699.161 856.785L699.161 863.526C698.805 863.4219999999999 698.476 863.362 698.112 863.362C696.3969999999999 863.362 694.9989999999999 864.6239999999999 694.9989999999999 866.1809999999999C694.9989999999999 867.7379999999999 696.3839999999999 868.9999999999999 698.0989999999999 868.9999999999999C699.8149999999999 868.9999999999999 701.199 867.7379999999999 701.199 866.1809999999999L701.199 860.8179999999999L707.929 859.3809999999999L707.929 862.5859999999999C707.606 862.4819999999999 707.261 862.4219999999999 706.8969999999999 862.4219999999999C705.1809999999999 862.4219999999999 703.7919999999999 863.685 703.7919999999999 865.2409999999999C703.7919999999999 866.7979999999999 705.1809999999999 868.0599999999998 706.896 868.0599999999998C708.612 868.0599999999998 710 866.7979999999999 710 865.2409999999999L710 854.9059999999998C710 854.6189999999998 709.859 854.3479999999998 709.611 854.1689999999999ZM701.199 858.887L701.199 857.529L707.929 856.092L707.929 857.4499999999999Z " fill="#000000" fill-opacity="1" transform="matrix(1,0,0,1,-694,-853)"></path></svg>