<svg id="SvgjsSvg1017" xmlns="http://www.w3.org/2000/svg" version="1.1" xmlns:xlink="http://www.w3.org/1999/xlink" xmlns:svgjs="http://svgjs.com/svgjs" width="16" height="16" viewBox="0 0 16 16"><title>Forma 1</title><desc>Created with Avocode.</desc><defs id="SvgjsDefs1018"></defs><path id="SvgjsPath1019" d="M692.64 617L693.36 618.6L705.2 618.6C705.6800000000001 618.6 706 618.9200000000001 706 619.4C706 619.56 706 619.64 705.84 619.8L702.96 625C702.72 625.48 702.24 625.8 701.6 625.8L695.6800000000001 625.8L694.96 627.16L694.96 627.24C694.96 627.32 695.0400000000001 627.4 695.12 627.4L704.4 627.4L704.4 629L694.8 629C693.92 629 693.1999999999999 628.28 693.1999999999999 627.4C693.1999999999999 627.16 693.28 626.84 693.3599999999999 626.6L694.4799999999999 624.6800000000001L691.5999999999999 618.6L689.9999999999999 618.6L689.9999999999999 617ZM696.4 631.4C696.4 632.28 695.68 633 694.8 633C693.92 633 693.1999999999999 632.28 693.1999999999999 631.4C693.1999999999999 630.52 693.92 629.8 694.8 629.8C695.68 629.8 696.4 630.52 696.4 631.4ZM702.8 629.8C701.92 629.8 701.1999999999999 630.52 701.1999999999999 631.4C701.1999999999999 632.28 701.92 633 702.8 633C703.68 633 704.4 632.28 704.4 631.4C704.4 630.52 703.68 629.8 702.8 629.8Z " fill="#000000" fill-opacity="1" transform="matrix(1,0,0,1,-690,-617)"></path></svg>