<svg id="SvgjsSvg1011" xmlns="http://www.w3.org/2000/svg" version="1.1" xmlns:xlink="http://www.w3.org/1999/xlink" xmlns:svgjs="http://svgjs.com/svgjs" width="12" height="12" viewBox="0 0 12 12"><title>Forma 1</title><desc>Created with Avocode.</desc><defs id="SvgjsDefs1012"></defs><path id="SvgjsPath1013" d="M1393 843C1389.69 843 1387 845.692 1387 849C1387 852.308 1389.69 855 1393 855C1396.31 855 1399 852.308 1399 849C1399 845.692 1396.31 843 1393 843ZM1393 854.414C1390.01 854.414 1387.59 851.985 1387.59 849C1387.59 846.014 1390.01 843.585 1393 843.585C1395.99 843.585 1398.41 846.014 1398.41 849C1398.41 851.985 1395.99 854.414 1393 854.414ZM1393.33 851.957L1392.55 851.957C1392.43 851.957 1392.34 852.055 1392.34 852.176L1392.34 853.077C1392.34 853.198 1392.4299999999998 853.296 1392.55 853.296L1393.33 853.296C1393.4499999999998 853.296 1393.55 853.1980000000001 1393.55 853.077L1393.55 852.176C1393.55 852.0550000000001 1393.45 851.957 1393.33 851.957ZM1394.5 845.071C1394.65 845.22 1394.72 845.4100000000001 1394.72 845.6370000000001L1394.72 847.4380000000001C1394.72 847.6860000000001 1394.66 847.9110000000001 1394.53 848.1060000000001L1393.52 849.642L1393.52 851.2750000000001C1393.52 851.397 1393.42 851.4950000000001 1393.3 851.4950000000001L1392.59 851.4950000000001C1392.4599999999998 851.4950000000001 1392.37 851.3970000000002 1392.37 851.2750000000001L1392.37 849.7460000000001C1392.37 849.4770000000001 1392.4299999999998 849.2490000000001 1392.55 849.0660000000001L1393.57 847.5400000000002L1393.57 845.9180000000002L1392.3799999999999 845.9180000000002L1392.3799999999999 847.5000000000002C1392.3799999999999 847.6210000000002 1392.28 847.7190000000003 1392.1599999999999 847.7190000000003L1391.4399999999998 847.7190000000003C1391.32 847.7190000000003 1391.2299999999998 847.6210000000003 1391.2299999999998 847.5000000000002L1391.2299999999998 845.6370000000002C1391.2299999999998 845.4090000000002 1391.2999999999997 845.2180000000002 1391.4599999999998 845.0700000000002C1391.61 844.9240000000002 1391.7999999999997 844.8500000000001 1392.0199999999998 844.8500000000001L1393.9299999999998 844.8500000000001C1394.1599999999999 844.8500000000001 1394.35 844.9240000000001 1394.4999999999998 845.0710000000001Z " fill="#000000" fill-opacity="1" transform="matrix(1,0,0,1,-1387,-843)"></path></svg>